<?xml version="1.0" encoding="UTF-8" standalone="no"?>
<!-- Created with Inkscape (http://www.inkscape.org/) -->

<svg
   width="512"
   height="512"
   viewBox="0 0 512 512"
   version="1.1"
   id="svg1"
   xml:space="preserve"
   xmlns="http://www.w3.org/2000/svg"
   xmlns:svg="http://www.w3.org/2000/svg"><defs
     id="defs1" /><g
     id="layer1"><path
       style="fill:currentColor"
       d="m 178.56002,416.02902 c -19.5801,-2.43685 -38.59301,-8.35129 -54.98809,-17.10543 -19.08774,-10.19188 -34.216695,-22.41605 -48.123766,-38.88389 -5.062553,-5.99475 -16.88814,-23.12426 -16.88814,-24.46268 0,-0.4625 -0.593684,-1.55134 -1.319298,-2.41964 -1.93854,-2.31976 -8.533466,-17.36787 -11.180735,-25.51188 -6.482396,-19.94232 -9.58183,-46.11921 -7.621471,-64.36866 1.93739,-18.03564 8.371327,-41.99692 14.280484,-53.1834 1.012561,-1.91685 1.843663,-3.94185 1.846894,-4.5 0.0032,-0.55814 2.879057,-5.6025 6.390726,-11.20969 22.74758,-36.32173 57.668806,-62.1719 96.850846,-71.69309 31.08103,-7.55265 62.79914,-5.33377 91.98987,6.43527 20.86244,8.41126 40.41022,22.5345 56.30642,40.68131 8.15207,9.30625 11.20879,14.65972 9.52727,16.68583 -0.7487,0.90213 -5.7329,1.50066 -16.32439,1.96032 -8.38564,0.36393 -17.94662,0.91826 -21.24662,1.23185 l -6,0.57017 -6.5,-5.68995 c -15.21225,-13.31646 -27.42192,-19.71788 -48,-25.16595 -8.87098,-2.34861 -10.65871,-2.48412 -27,-2.0466 -14.07656,0.37688 -18.96719,0.89754 -25,2.66151 -11.95778,3.4964 -33.45045,14.28409 -40.91926,20.53836 -44.229704,37.03732 -58.60857,91.93597 -37.677876,143.85451 3.364381,8.34533 12.321921,23.64634 17.077526,29.17134 18.96897,22.03788 39.81203,35.18503 66.01961,41.64312 5.5991,1.37973 13.12614,2.1438 25.08068,2.54595 l 17.08068,0.5746 14.16932,13.64218 c 16.45065,15.83865 17.07889,17.21396 8.91932,19.52569 -14.98146,4.24447 -41.79749,6.37976 -56.75,4.51885 z m 114,-1.45109 c -18.10168,-4.03334 -31.62399,-9.68789 -42.71235,-17.8608 -9.08318,-6.69493 -93.10822,-90.89047 -98.08255,-98.28156 -9.73173,-14.45987 -12.60806,-24.60361 -12.5777,-44.35694 0.0218,-14.1693 0.10263,-14.70838 3.54554,-23.63702 16.85979,-43.72326 64.78996,-62.47267 106.50344,-41.6622 l 7.17638,3.58023 8.67151,-4.17871 c 10.60727,-5.11153 17.39749,-6.95863 28.47573,-7.74607 22.2454,-1.5812 42.52023,6.06029 58.58577,22.08071 9.25977,9.23376 15.11583,18.51597 18.96651,30.06306 2.3888,7.16336 2.66138,9.4294 2.60641,21.66793 -0.0713,15.86858 -1.47887,22.58101 -7.13159,34.00868 -5.79872,11.72281 -10.63404,17.30218 -44.63226,51.50025 -18.59857,18.7079 -31.35513,32.29081 -31.18006,33.19988 0.60444,3.13861 8.45537,4.43122 27.28522,4.49234 15.64953,0.0508 19.0836,-0.23503 26.29825,-2.18893 42.64058,-11.54808 74.60787,-42.36255 85.77333,-82.68015 2.73803,-9.8868 1.99565,-9.58561 22.85321,-9.27188 l 18.07521,0.27188 -0.20159,5.06783 c -0.18795,4.72497 -3.23091,16.66986 -6.60624,25.93217 -4.24086,11.63748 -13.2478,27.93411 -21.5548,39 -6.37523,8.49256 -26.51833,28.25398 -33.63737,33 -3.3,2.2 -6.225,4.27705 -6.5,4.61567 -0.275,0.33862 -2.3,1.58767 -4.5,2.77568 -2.2,1.18801 -5.45781,3.0367 -7.23958,4.1082 -7.74145,4.65546 -23.30873,10.45973 -41.76042,15.5704 -8.50818,2.35655 -47.23574,2.99357 -56.5,0.92935 z m -23.10131,-77.7493 c 6.58713,-6.1875 22.4931,-21.825 35.3466,-34.75 28.58278,-28.74179 30.2162,-31.22652 30.23964,-46 0.0131,-8.24024 -0.3414,-10.2606 -2.6731,-15.23578 -3.43134,-7.32151 -10.88989,-14.78006 -18.41586,-18.41587 -5.2814,-2.55145 -6.93833,-2.84729 -15.89597,-2.83827 -8.99055,0.009 -10.59864,0.3026 -15.93036,2.90795 -3.2617,1.59383 -10.12757,6.42679 -15.25749,10.73992 -5.12993,4.31313 -9.92171,7.84205 -10.6484,7.84205 -0.7267,0 -5.5508,-3.67008 -10.72023,-8.15574 -13.0912,-11.35959 -17.59359,-13.29827 -30.94352,-13.32401 -9.61717,-0.0185 -10.9524,0.21796 -15.88069,2.81283 -6.7263,3.54157 -13.76555,10.57315 -17.42672,17.40774 -5.47132,10.21374 -4.66591,24.62617 1.95783,35.03452 4.38598,6.892 70.70051,73.22466 73.20464,73.22466 0.58686,0 6.4565,-5.0625 13.04363,-11.25 z M 433.74858,230.03968 c -1.20371,-1.12143 -2.18856,-2.61865 -2.18856,-3.32718 0,-3.60868 -6.71756,-20.71941 -11.14908,-28.39854 -22.15317,-38.38797 -55.43256,-58.98736 -99.85092,-61.80606 -10.3741,-0.65833 -10.54796,-0.71101 -14.5,-4.39405 -2.2,-2.05026 -8.5,-7.4312 -14,-11.95766 -14.8659,-12.23452 -15.5,-12.80579 -15.5,-13.96427 0,-2.9565 11.20685,-5.92845 29,-7.690525 10.30934,-1.020947 38.03322,1.332548 49.39143,4.192865 37.11459,9.3465 69.15267,31.64959 91.76901,63.88437 5.30035,7.55453 13.25452,22.84416 17.71158,34.04549 5.64499,14.18679 7.91014,29.55666 4.54619,30.84753 -0.86998,0.33384 -8.66013,0.60698 -17.31143,0.60698 -14.44758,0 -15.90804,-0.16618 -17.91822,-2.03895 z"
       id="path1" /></g></svg>
